<svg id="Layer_1" data-name="Layer 1" xmlns="http://www.w3.org/2000/svg" viewBox="0 0 162.92 194.8"><defs><style>.cls-1{fill:#fafafa;}.cls-2{fill:none;stroke:#fafafa;stroke-miterlimit:10;stroke-width:10px;}</style></defs><title>logo</title><path class="cls-1" d="M104.88,87.15q4-4.29,4-15.49,0-11.45-4.69-15.62t-9.37-4.16H69.35V91.45H96.16Q100.85,91.45,104.88,87.15Z" transform="translate(-14.88 -3.3)"/><path class="cls-1" d="M173.12,71.51a68,68,0,0,0-12.88-20.56,62.63,62.63,0,0,0-5.8-5.51c.45,1,.93,1.93,1.33,2.93a61.69,61.69,0,0,1,4.68,23.3A67.77,67.77,0,0,1,143.66,116a58.89,58.89,0,0,1-19.26,14.32,57.57,57.57,0,0,1-24.86,5.33H69.35v23.12l17.35,0H116.9a57.57,57.57,0,0,0,24.86-5.34A58.84,58.84,0,0,0,161,139.18,67.77,67.77,0,0,0,177.8,94.81,61.69,61.69,0,0,0,173.12,71.51Z" transform="translate(-14.88 -3.3)"/><path class="cls-2" d="M19.88,193.1V8.3H99.52a56.18,56.18,0,0,1,25,5.6,64.92,64.92,0,0,1,19.65,14.58A68.12,68.12,0,0,1,157,49a61.69,61.69,0,0,1,4.69,23.29,67.77,67.77,0,0,1-16.79,44.38A58.85,58.85,0,0,1,125.68,131a57.56,57.56,0,0,1-24.86,5.34H70.63V193.1Zm50.75-101H97.44q4.69,0,8.72-4.29t4-15.49q0-11.45-4.69-15.62t-9.37-4.16H70.63Z" transform="translate(-14.88 -3.3)"/></svg>