<svg id="Layer_1" data-name="Layer 1" xmlns="http://www.w3.org/2000/svg" viewBox="0 0 162.92 194.8"><defs><style>.cls-1{fill:#0c9;}.cls-2{fill:none;stroke:#0c9;stroke-miterlimit:10;stroke-width:10px;}</style></defs><title>logo1</title><path class="cls-1" d="M107.88,86.15q4-4.29,4-15.49,0-11.45-4.69-15.62t-9.37-4.16H72.35V90.45H99.16Q103.85,90.45,107.88,86.15Z" transform="translate(-17.88 -2.3)"/><path class="cls-1" d="M176.12,70.51a68,68,0,0,0-12.88-20.56,62.63,62.63,0,0,0-5.8-5.51c.45,1,.93,1.93,1.33,2.93a61.69,61.69,0,0,1,4.68,23.3A67.77,67.77,0,0,1,146.66,115a58.89,58.89,0,0,1-19.26,14.32,57.57,57.57,0,0,1-24.86,5.33H72.35v23.12l17.35,0H119.9a57.57,57.57,0,0,0,24.86-5.34A58.84,58.84,0,0,0,164,138.18,67.77,67.77,0,0,0,180.8,93.81,61.69,61.69,0,0,0,176.12,70.51Z" transform="translate(-17.88 -2.3)"/><path class="cls-2" d="M22.88,192.1V7.3h79.65a56.18,56.18,0,0,1,25,5.6,64.92,64.92,0,0,1,19.65,14.58A68.12,68.12,0,0,1,160,48a61.69,61.69,0,0,1,4.69,23.29,67.77,67.77,0,0,1-16.79,44.38A58.85,58.85,0,0,1,128.68,130a57.56,57.56,0,0,1-24.86,5.34H73.63V192.1Zm50.75-101h26.81q4.69,0,8.72-4.29t4-15.49q0-11.45-4.69-15.62t-9.37-4.16H73.63Z" transform="translate(-17.88 -2.3)"/></svg>